HIERARCHY
ROOT Hips
{
	OFFSET 	 0.0	 82.7767562866211	 -3.42842698097229
	CHANNELS 6 Xposition Yposition Zposition Xrotation Yrotation Zrotation 
	JOINT LHipJoint
	{
		OFFSET 	 0.0	 0.0	 0.0
		CHANNELS 3 Xrotation Yrotation Zrotation 
		JOINT LeftUpLeg
		{
			OFFSET 	 1.3833840739607695e-08	 9.52159583568573	 6.661737828039804e-08
			CHANNELS 3 Xrotation Yrotation Zrotation 
			JOINT LeftLeg
			{
				OFFSET 	 -5.707910588625964e-08	 37.121901512145996	 1.8232933385320393e-07
				CHANNELS 3 Xrotation Yrotation Zrotation 
				JOINT LeftFoot
				{
					OFFSET 	 -2.8894096004705716e-08	 37.903292179107666	 6.046882994326097e-09
					CHANNELS 3 Xrotation Yrotation Zrotation 
					JOINT LeftToeBase
					{
						OFFSET 	 2.6527413599097827e-08	 13.004454374313354	 -1.205770683299079e-07
						CHANNELS 3 Xrotation Yrotation Zrotation 
						End Site
						{
							OFFSET 	 0.0	 0.0	 0.0
						}
					}
				}
			}
		}
	}
	JOINT LowerBack
	{
		OFFSET 	 0.0	 8.534448742866516	 -1.7118563278017973e-06
		CHANNELS 3 Xrotation Yrotation Zrotation 
		JOINT Spine
		{
			OFFSET 	 -6.293440239720671e-16	 15.672223567962646	 -5.30786294916652e-07
			CHANNELS 3 Xrotation Yrotation Zrotation 
			JOINT Spine1
			{
				OFFSET 	 -8.787226335679009e-16	 15.124907493591309	 1.9850716626024223e-08
				CHANNELS 3 Xrotation Yrotation Zrotation 
				JOINT LeftShoulder
				{
					OFFSET 	 2.2699464857578278	 7.339215278625488	 1.5681582689285278
					CHANNELS 3 Xrotation Yrotation Zrotation 
					JOINT LeftArm
					{
						OFFSET 	 -2.069970861384718e-09	 13.603790998458862	 1.58716789711022e-10
						CHANNELS 3 Xrotation Yrotation Zrotation 
						JOINT LeftForeArm
						{
							OFFSET 	 1.2936460791479476e-08	 23.163669109344482	 -2.6309954215264497e-08
							CHANNELS 3 Xrotation Yrotation Zrotation 
							JOINT LeftHand
							{
								OFFSET 	 4.768468215843313e-06	 21.078219413757324	 8.336330736824493e-08
								CHANNELS 3 Xrotation Yrotation Zrotation 
								JOINT LThumb
								{
									OFFSET 	 0.26190444827079773	 3.5369667410850525	 1.84941366314888
									CHANNELS 3 Xrotation Yrotation Zrotation 
									End Site
									{
										OFFSET 	 0.0	 0.0	 0.0
									}
								}
								JOINT LeftFingerBase
								{
									OFFSET 	 -4.723999609268503e-06	 2.8848156332969666	 4.762068073205228e-07
									CHANNELS 3 Xrotation Yrotation Zrotation 
									JOINT LeftHandFinger1
									{
										OFFSET 	 -2.75353812639878e-06	 6.790903806686401	 -3.88968601328088e-06
										CHANNELS 3 Xrotation Yrotation Zrotation 
										End Site
										{
											OFFSET 	 0.0	 0.0	 0.0
										}
									}
								}
							}
						}
					}
				}
				JOINT Neck
				{
					OFFSET 	 0.0	 14.310184717178345	 -1.513166836275559e-07
					CHANNELS 3 Xrotation Yrotation Zrotation 
					JOINT Neck1
					{
						OFFSET 	 -5.1608641744361507e-14	 5.616583824157715	 5.539393832521e-08
						CHANNELS 3 Xrotation Yrotation Zrotation 
						JOINT Head
						{
							OFFSET 	 -1.4334930811821245e-12	 5.616592764854431	 -1.838854331026596e-06
							CHANNELS 3 Xrotation Yrotation Zrotation 
							End Site
							{
								OFFSET 	 0.0	 0.0	 0.0
							}
						}
					}
				}
				JOINT RightShoulder
				{
					OFFSET 	 -2.2699464857578278	 7.339215278625488	 1.5681582689285278
					CHANNELS 3 Xrotation Yrotation Zrotation 
					JOINT RightArm
					{
						OFFSET 	 3.627677713780031e-08	 13.603789806365967	 1.1437942953884672e-09
						CHANNELS 3 Xrotation Yrotation Zrotation 
						JOINT RightForeArm
						{
							OFFSET 	 -2.7195401486324045e-08	 23.16366672515869	 -4.628752048319029e-08
							CHANNELS 3 Xrotation Yrotation Zrotation 
							JOINT RightHand
							{
								OFFSET 	 -1.327116194715927e-10	 21.07820987701416	 -1.3437972956609201e-08
								CHANNELS 3 Xrotation Yrotation Zrotation 
								JOINT RThumb
								{
									OFFSET 	 -0.26191262528300285	 3.5369661450386047	 1.849413514137268
									CHANNELS 3 Xrotation Yrotation Zrotation 
									End Site
									{
										OFFSET 	 0.0	 0.0	 0.0
									}
								}
								JOINT RightFingerBase
								{
									OFFSET 	 4.731079172870523e-06	 2.8848156332969666	 4.4467967086347926e-07
									CHANNELS 3 Xrotation Yrotation Zrotation 
									JOINT RightHandFinger1
									{
										OFFSET 	 -2.6848201173379493e-06	 6.790900230407715	 3.930656191641901e-06
										CHANNELS 3 Xrotation Yrotation Zrotation 
										End Site
										{
											OFFSET 	 0.0	 0.0	 0.0
										}
									}
								}
							}
						}
					}
				}
			}
		}
	}
	JOINT RHipJoint
	{
		OFFSET 	 0.0	 0.0	 0.0
		CHANNELS 3 Xrotation Yrotation Zrotation 
		JOINT RightUpLeg
		{
			OFFSET 	 -1.3833840739607695e-08	 9.52159583568573	 6.661737828039804e-08
			CHANNELS 3 Xrotation Yrotation Zrotation 
			JOINT RightLeg
			{
				OFFSET 	 -6.34770724872169e-08	 37.121896743774414	 2.5993788455025424e-07
				CHANNELS 3 Xrotation Yrotation Zrotation 
				JOINT RightFoot
				{
					OFFSET 	 8.486544800234697e-09	 37.90329694747925	 -9.579663284853268e-08
					CHANNELS 3 Xrotation Yrotation Zrotation 
					JOINT RightToeBase
					{
						OFFSET 	 -6.957762366255338e-08	 13.004448413848877	 3.9166149434777253e-07
						CHANNELS 3 Xrotation Yrotation Zrotation 
						End Site
						{
							OFFSET 	 0.0	 0.0	 0.0
						}
					}
				}
			}
		}
	}
}

MOTION
Frames: 4
Frame Time: 0.013888888888888888
-6.74375064176 -0.17241862935 -11.5262747812 -179.9999966284779 -4.428167682530019 -179.99999973968752 103.66549855049388 -5.371501992054063 -95.67629348130089 24.595184642547228 79.09368349267683 61.34641644217247 20.52548474415408 1.1290717979150165e-07 -0.02781254279314422 -88.56890933804887 -0.1817686245943151 2.9552409537700206 -10.713498986625517 -0.29240576983294925 -5.37736180043562 -2.6523879115093028 -3.9680619433260715 0.3624934892627399 3.9158568861370777 -7.0945402560882105e-09 -1.6124105383880766e-07 -5.502807242876816 1.6915838854039029e-09 -1.755876425923205e-08 -15.128341559890174 2.7292839866134964 -90.71797479018358 62.28506884171508 23.71669230020725 -73.80443744571562 37.435265638361564 0.08845342110574154 1.3597075617593903 -6.946714884918919 -2.421793200444658 -2.693692255639584 -153.3799885734933 10.576451540141347 -128.8623478453678 -1.1818968360983644 62.45487062337335 14.7109920491596 -6.43766723118801 -4.102374448447652 -25.071374075972816 26.634144175317292 1.3179098535941045 1.5340147102788888 -1.4036607949092789e-05 -9.804588378174593e-05 -1.2569730248000966e-11 -24.78545757189122 4.055096874577285e-05 1.872468899079649e-05 -23.353183961194016 7.562069313985491 90.60665573437382 26.375340434543336 -26.249482094086574 74.17613654155603 33.21689242739362 -0.4897992486929494 15.473874314190368 -4.247216718183747 -4.161791916912696 16.701619192290124 -153.37972521347135 -10.578499503264688 128.8545407789541 -1.181683179039309 -62.45489950191321 -14.710836136826787 -6.437787447351147 4.102433203878646 25.0713781621932 103.66549855049388 5.371501992054063 95.67629348130089 5.503003747959288 -44.82228474736518 -76.49343574835609 34.72811024793213 -1.4576207789915747e-07 -0.03637866064207548 -69.14770585138376 0.5106103237725507 -10.188072192773069 -10.71313248787382 0.29241052268170153 5.377299312458635
-6.73210886343 -0.33270332683 -12.3123221172 -179.99999662806357 -4.518158236979969 -179.9999997343756 103.66549855049388 -5.371501992054063 -95.67629348130089 25.89324824665728 79.39874292692194 59.87770526767944 20.685213636189314 1.1370388000472926e-07 -0.029474736089180314 -88.8381154696204 -0.24696436553053763 3.160308108782231 -10.713498986625517 -0.29240576983294925 -5.37736180043562 -2.653753754420266 -3.8955226249554573 0.37972420002520807 3.915856886137177 -7.092916638811909e-09 -1.6124087667040292e-07 -5.502807242876816 1.6915838854039029e-09 -1.755876425923205e-08 -15.12607615588923 2.7297154846158107 -90.7385978405864 62.16992187655229 23.84280745134024 -73.75711646199574 38.28835543460045 0.006504902918621004 1.61090979178459 -6.946714884918873 -2.421793200444647 -2.693692255639579 -153.3799885734933 10.576451540141347 -128.8623478453678 -1.1818968360983644 62.45487062337335 14.7109920491596 -6.43766723118801 -4.102374448447652 -25.071374075972816 26.629189168246718 1.2947084989661601 1.5070224751338546 -1.4036607949092789e-05 -9.804588378174593e-05 -1.2569730248000966e-11 -24.78545757189122 4.055096874577285e-05 1.872468899079649e-05 -23.349201647962307 7.565443015863071 90.58615123208529 26.230879760982504 -26.43933491439635 74.4217163237146 33.19441314685413 -0.5033575352096623 15.2978829964399 -4.2472167181838 -4.161791916912698 16.70161919229014 -153.37972521347135 -10.578499503264688 128.8545407789541 -1.181683179039309 -62.45489950191321 -14.710836136826787 -6.437787447351147 4.102433203878646 25.0713781621932 103.66549855049388 5.371501992054063 95.67629348130089 5.415645820236231 -44.55720679670853 -76.94697804534736 33.42553115671897 -1.4132246161302702e-07 -0.02051310781755907 -69.16023567681394 0.566937006619986 -10.509235990253426 -10.71313248787382 0.29241052268170153 5.377299312458635
-6.69123092475 -0.50159946817 -13.1336231529 -179.99999662762815 -4.610831458799846 -179.99999972890396 103.66549855049388 -5.371501992054063 -95.67629348130089 27.3022816429501 79.69483703866872 58.26886987965244 20.866401671142448 1.1429230290149514e-07 -0.030842409487896575 -89.08347444872629 -0.32257428621415085 3.3833291647109114 -10.713498986625517 -0.29240576983294925 -5.37736180043562 -2.6552587531846945 -3.8136522944782136 0.3984095461915009 3.9158568861372114 -7.091665831370563e-09 -1.6124594379602755e-07 -5.502807242876816 1.6915838854039029e-09 -1.755876425923205e-08 -15.123577725732362 2.7301784432096907 -90.76074207188476 62.01209659433501 24.022608117024827 -73.80154913527251 39.23819987179243 -0.10340708625213256 1.9272545617099242 -6.946714884918881 -2.421793200444626 -2.693692255639527 -153.3799885734933 10.576451540141347 -128.8623478453678 -1.1818968360983644 62.45487062337335 14.7109920491596 -6.43766723118801 -4.102374448447652 -25.071374075972816 26.6239671357659 1.2697957496695238 1.4780079916227018 -1.4036607949092789e-05 -9.804588378174593e-05 -1.2569730248000966e-11 -24.78545757189122 4.055096874577285e-05 1.872468899079649e-05 -23.34485846410305 7.569064523014535 90.56413395635573 26.04215089359956 -26.68144199687503 74.73635760408723 33.18963916606676 -0.5144850625507288 15.05860779930939 -4.247216718183746 -4.1617919169127005 16.701619192290124 -153.37972521347135 -10.578499503264688 128.8545407789541 -1.181683179039309 -62.45489950191321 -14.710836136826787 -6.437787447351147 4.102433203878646 25.0713781621932 103.66549855049388 5.371501992054063 95.67629348130089 5.345214787433337 -44.33781040688744 -77.3952114222624 32.15010044162809 -1.3680960370044072e-07 -0.0072887081409489475 -69.21456772182952 0.6140299469979753 -10.781282802777874 -10.71313248787382 0.29241052268170153 5.377299312458635
-6.62604798536 -0.67859324161 -13.9892785842 -179.9999966271542 -4.709606548939984 -179.99999972307046 103.66549855049388 -5.371501992054063 -95.67629348130089 28.816682765297987 79.98402575191253 56.526439202060885 21.06697668767619 1.1590698264812156e-07 -0.031374727682056194 -89.30004307434415 -0.4076521134251395 3.6285207375580186 -10.713498986625517 -0.29240576983294925 -5.37736180043562 -2.656923081055231 -3.7260838345530805 0.4183615196161727 3.9158568861370613 -7.091761634623837e-09 -1.6123542533081526e-07 -5.502807242876816 1.6915838854039029e-09 -1.755876425923205e-08 -15.120835630883317 2.7306719885984494 -90.78437880820725 61.82114915036487 24.245670563215995 -73.92288381511565 40.24842148017692 -0.2323323734567914 2.29381681053502 -6.946714884918856 -2.4217932004446703 -2.693692255639574 -153.3799885734933 10.576451540141347 -128.8623478453678 -1.1818968360983644 62.45487062337335 14.7109920491596 -6.43766723118801 -4.102374448447652 -25.071374075972816 26.61851756745571 1.2427417627447865 1.447388885395099 -1.4036607949092789e-05 -9.804588378174593e-05 -1.2569730248000966e-11 -24.78545757189122 4.055096874577285e-05 1.872468899079649e-05 -23.340145899092896 7.572928730169902 90.54063231894328 25.821093096804088 -26.961195604455995 75.10479910618847 33.199334286331705 -0.5235961502222544 14.769418574695091 -4.247216718183816 -4.1617919169127005 16.70161919229014 -153.37972521347135 -10.578499503264688 128.8545407789541 -1.181683179039309 -62.45489950191321 -14.710836136826787 -6.437787447351147 4.102433203878646 25.0713781621932 103.66549855049388 5.371501992054063 95.67629348130089 5.282708341175929 -44.13514073764335 -77.83689515612743 30.96246114980239 -1.3200549961239628e-07 0.003348957262797722 -69.305298036402 0.6516029876486648 -11.000816436264158 -10.71313248787382 0.29241052268170153 5.377299312458635
